<?xml version="1.0" encoding="UTF-8" standalone="no"?><!DOCTYPE svg PUBLIC "-//W3C//DTD SVG 1.1//EN" "http://www.w3.org/Graphics/SVG/1.1/DTD/svg11.dtd"><svg width="100%" height="100%" viewBox="0 0 346 187" version="1.1" xmlns="http://www.w3.org/2000/svg" xmlns:xlink="http://www.w3.org/1999/xlink" xml:space="preserve" xmlns:serif="http://www.serif.com/" style="fill-rule:evenodd;clip-rule:evenodd;stroke-linejoin:round;stroke-miterlimit:2;"><rect id="familie" x="0" y="0" width="345.26" height="186.52" style="fill:none;"/><clipPath id="_clip1"><rect x="0" y="0" width="345.26" height="186.52"/></clipPath><g clip-path="url(#_clip1)"><g id="personen"><g id="Broertje"><path id="lijf" d="M290.12,186.612c1.109,-5.446 4.127,-12.168 7.032,-15.279c3.882,-4.155 14.123,0.902 12.492,-7.375l5.058,0.097l6.341,-0.326c-2.256,7.633 10.188,4.467 12.95,7.706c2.607,3.059 4.149,9.887 4.912,15.177l-48.785,0Z" style="fill:#fddbd0;"/><path id="kleren" d="M290.12,186.612c1.109,-5.446 3.085,-12.987 6.376,-15.687c3.255,-2.672 9.131,-0.8 12.225,-2.784c-0,0 1.56,3.514 6.068,3.542c5.513,0.036 8.006,-3.316 8.006,-3.316c2.468,1.466 8.436,-0.171 11.198,3.068c2.607,3.059 4.149,9.887 4.912,15.177l-48.785,0Z" style="fill:#abc2a6;"/><path id="lichaam" d="M314.618,110.069c14.12,-0 25.827,11.274 26.729,25.524c2.182,0.173 3.913,2.693 3.913,5.775c-0,3.195 -1.86,5.786 -4.154,5.786c-0.453,-0 -0.89,-0.102 -1.299,-0.289c-3.642,10.39 -13.187,17.793 -25.189,17.793c-12.049,-0 -21.518,-7.46 -25.084,-17.912c-0.474,0.263 -0.992,0.408 -1.534,0.408c-2.293,-0 -4.153,-2.591 -4.153,-5.786c-0,-3.195 1.86,-5.785 4.153,-5.785c0.019,0 0.038,0 0.056,0.001c0.894,-14.245 12.444,-25.515 26.562,-25.515Z" style="fill:#fddbd0;"/><ellipse id="oog-links" cx="304.217" cy="137.299" rx="1.187" ry="1.672"/><ellipse id="oog-rechts" cx="325.103" cy="137.299" rx="1.187" ry="1.672"/><path id="lieze-mond" d="M304.474,150.663c2.442,3.494 6.075,5.241 10.899,5.241c4.824,0 8.067,-1.747 9.73,-5.241l-20.629,-0Z" style="fill:#e0a690;"/><path d="M287.865,135.627c-0.217,-31.411 49.442,-38.736 53.537,-0c0.037,0.348 -0.879,0.305 -1.051,-0c-4.14,-7.356 -9.006,-11.927 -14.061,-14.448c-3.881,-1.934 -8.527,-0.376 -12.391,-0.228c-3.528,0.135 -6.295,-1.285 -9.425,0.057c-7.615,3.265 -13.506,9.354 -15.025,14.619c-0.146,0.507 -1.58,0.527 -1.584,-0Z" style="fill:#faeab7;"/></g><g id="Lieze"><path id="lieze-lichaam" d="M0.08,186.315c1.592,-17.699 5.571,-27.047 11.937,-28.045c7.498,-1.176 16.753,-3.708 19.618,-4.457c1.377,-0.36 2.167,-0.704 2.722,-1.131c1.233,-0.949 1.163,-1.798 1.181,-1.923c0.103,-0.68 0.161,-1.54 0.174,-2.58c-12.208,-2.545 -21.532,-11.3 -25.387,-22.798c-0.56,0.267 -1.163,0.412 -1.79,0.412c-3.031,-0 -5.489,-3.388 -5.489,-7.566c0,-4.178 2.458,-7.565 5.489,-7.565l-0.052,-0c1.333,-18.415 16.338,-32.932 34.654,-32.932c18.32,0 33.529,14.524 34.873,32.947c2.868,0.247 5.14,3.533 5.14,7.55c0,4.178 -2.457,7.566 -5.488,7.566c-0.541,-0 -1.063,-0.108 -1.556,-0.308c-3.933,11.47 -13.369,20.192 -25.608,22.709c0.004,1.067 0.058,1.938 0.16,2.615c0.019,0.125 -0.052,0.973 1.181,1.921c0.556,0.426 1.346,0.769 2.722,1.129c2.865,0.748 12.121,3.277 19.618,4.45c6.366,0.997 10.346,10.332 11.938,28.006l-86.037,0Z" style="fill:#fddbd0;"/><path id="lieze-haar" d="M57.107,69.056c3.253,1.031 4.856,1.686 5.838,2.298c0.982,0.612 0.804,1.335 0.359,1.855c8.844,3.099 14.409,8.526 16.696,16.278c1.744,5.912 3.143,14.043 2.34,24.834c-0.969,-2.142 -2.712,-3.659 -4.678,-3.659c-0.041,-0 -0.081,0 -0.121,0.002c-0.407,-5.32 -1.898,-9.816 -3.985,-13.761c0.479,2.167 0.81,3.868 0.994,5.103c0.871,5.854 -0.425,8.388 0.515,12.219c0.765,3.118 2.283,4.813 3.729,6.375l0.18,0.194c0.81,0.874 1.586,1.723 2.182,2.775c0.224,0.397 0.823,1.892 0.782,3.388c-0.028,0.997 -0.177,1.75 -0.448,2.259c0.424,-1.43 0.235,-3.003 -0.565,-4.719l0.052,0.115c-0.031,0.172 -0.063,0.345 -0.095,0.518c-1.573,8.513 -2.394,14.098 -2.465,16.754c-0.106,3.984 0.286,8.248 0.286,9.697c0,1.448 -0.443,4.785 -2.847,6.751c-0.31,0.254 -0.718,0.384 -1.224,0.392c-0.613,0.009 -1.368,-0.162 -2.268,-0.512l-0.465,-0.083l-0.233,-0.043l-0.468,-0.087l-0.47,-0.089l-0.235,-0.045l-0.472,-0.093l-0.472,-0.094l-0.473,-0.096l-0.472,-0.098l-0.472,-0.099l-0.471,-0.1l-0.47,-0.102l-0.468,-0.102l-0.699,-0.156l-0.462,-0.104l-0.688,-0.157l-0.68,-0.158l-0.67,-0.158l-0.877,-0.21l-0.643,-0.156l-0.836,-0.205l-0.808,-0.201l-0.966,-0.244l-0.554,-0.142l-1.045,-0.269l-1.098,-0.286l-2.241,-0.59c-0.351,-0.093 -0.662,-0.186 -0.941,-0.279l-0.103,-0.035l-0.177,-0.064c-0.605,-0.223 -1.038,-0.454 -1.381,-0.717c-0.571,-0.438 -0.863,-0.855 -1.013,-1.188l-0.018,-0.041l-0.028,-0.072l-0.025,-0.068l-0.021,-0.066l-0.009,-0.031l-0.008,-0.031l-0.014,-0.058l-0.012,-0.055l-0.008,-0.051l-0.007,-0.047l-0.007,-0.063l-0.01,-0.138l-0.026,-0.181l-0.022,-0.181c-0.007,-0.062 -0.014,-0.126 -0.021,-0.19l-0.009,-0.099l-0.018,-0.202l-0.015,-0.21l-0.014,-0.219l-0.006,-0.112l-0.01,-0.231l-0.004,-0.119l-0.008,-0.243l-0.005,-0.251l-0.002,-0.129l0,-0.63c11.769,-2.664 21.288,-11.321 25.207,-22.738c0.655,0.266 1.27,0.452 1.953,0.43c1.201,-0.038 2.284,-0.475 3.184,-1.365c-0.686,-1.05 -4.946,-5.089 -6.742,-9.927c-0.333,-0.896 -0.387,-2.004 -0.39,-3.448l0.001,-0.251c0.005,-2.669 0.139,-6.451 -0.92,-12.072c-0.245,-1.301 -0.808,-3.225 -1.69,-5.77c-4.832,-6.878 -11.677,-11.288 -18.565,-12.265c-0.585,0.395 -2.762,0.631 -5.456,1.115c-1.964,0.725 -3.629,1.536 -4.995,2.433c-0.628,0.412 -1.258,0.824 -1.889,1.236l-0.809,0.529c-4.405,2.874 -8.704,5.674 -11.581,7.9c-3.464,2.681 -6.283,6.93 -8.903,10.852c-1.677,2.51 -3.309,7.018 -4.895,13.524c1.14,-5.347 2.193,-9.522 3.159,-12.522c0.732,-2.278 3.924,-9.094 13.891,-16.853c-2.978,1.626 -5.624,3.095 -9.485,6.94c-7.463,7.432 -10.497,26.372 -10.497,30.367c1.859,6.023 8.385,17.707 24.61,21.885l0.026,0.429l-0.005,0.277l-0.003,0.135l-0.008,0.264l-0.01,0.255l-0.013,0.246l-0.014,0.237l-0.009,0.115l-0.017,0.224c-0.022,0.251 -0.048,0.485 -0.079,0.701l-0.016,0.114l-0.01,0.138l-0.01,0.086l-0.008,0.049l-0.01,0.053l-0.013,0.057l-0.007,0.029l-0.018,0.062l-0.02,0.066l-0.012,0.033l-0.027,0.07l-0.031,0.073c-0.149,0.335 -0.441,0.753 -1.014,1.193c-0.539,0.414 -1.299,0.748 -2.602,1.095l-2.852,0.749l-1.174,0.305l-0.912,0.233l-0.967,0.244l-0.603,0.15l-0.829,0.205l-0.639,0.155l-0.651,0.157l-0.664,0.158l-0.673,0.158l-0.683,0.157l-0.459,0.105l-0.463,0.104l-0.698,0.156l-0.468,0.102l-0.47,0.102l-0.471,0.1l-0.472,0.099l-0.473,0.098l-0.59,0.12l-0.59,0.117l-0.471,0.091l-0.587,0.111l-0.584,0.108l-0.581,0.104l-0.116,0.02l-0.46,0.079c-0.383,0.065 -0.762,0.127 -1.137,0.186c-2.321,0.362 -4.629,-5.847 -4.786,-7.178c-0.067,-0.564 -0.102,-2.042 -0.104,-4.433l0,-0.407c0.001,-1.293 0.011,-2.832 0.029,-4.616l0.02,-0.821l0.017,-0.804l0.01,-0.527l0.008,-0.519l0.007,-0.513l0.005,-0.505l0.004,-0.498l0.002,-0.49l0.002,-0.722l-0.001,-0.472l-0.003,-0.465l-0.006,-0.683l-0.006,-0.447l-0.007,-0.439l-0.009,-0.432l-0.01,-0.424l-0.01,-0.384l-0.013,-0.345c-0.012,-0.285 -0.027,-0.563 -0.044,-0.835l-0.023,-0.323c-0.004,-0.054 -0.008,-0.107 -0.012,-0.16l-0.027,-0.314c-0.014,-0.156 -0.029,-0.31 -0.045,-0.462l-0.033,-0.301c-0.017,-0.149 -0.035,-0.296 -0.054,-0.442l-0.039,-0.288l-0.041,-0.283c-0.007,-0.047 -0.014,-0.093 -0.021,-0.14l-0.045,-0.276l-0.047,-0.271l-0.048,-0.267c-0.009,-0.044 -0.017,-0.088 -0.026,-0.132l-0.051,-0.26l-0.054,-0.256c-0.018,-0.085 -0.037,-0.169 -0.055,-0.253l-0.058,-0.248l-0.058,-0.245l-0.061,-0.241l-0.062,-0.238l-0.064,-0.234l-0.065,-0.231l-0.066,-0.228c-0.012,-0.038 -0.023,-0.075 -0.034,-0.113l-0.068,-0.223l-0.07,-0.221l-0.071,-0.219c-0.012,-0.036 -0.024,-0.072 -0.036,-0.108l-0.109,-0.321l-0.111,-0.316l-0.075,-0.208l-0.076,-0.207l-0.115,-0.306l-0.117,-0.302l-0.157,-0.4l-0.16,-0.394l-0.281,-0.684l-0.414,-1.002l-0.196,-0.479l-0.145,-0.362l-0.096,-0.243l-0.141,-0.368l-0.14,-0.372l-0.091,-0.251l-0.089,-0.254l-0.089,-0.256l-0.086,-0.26c-0.014,-0.043 -0.028,-0.087 -0.043,-0.131l-0.083,-0.265c-0.483,-1.554 -0.865,-3.299 -1.038,-5.454c-0.638,-7.941 2.091,-23.174 4.281,-27.285c11.786,-22.126 47.618,-16.437 50.872,-15.406Z" style="fill:#f6da9c;"/><path id="lieze-haar-lok-1" d="M21.589,73.442c-5.444,3.513 -10.324,8.782 -12.061,11.323c-2.714,3.968 -2.812,8.301 -3.687,11.979c-1.716,7.21 -2.119,11.925 -1.208,14.145c0.241,-2.932 0.938,-5.197 1.208,-7.004c1.362,-9.117 3.449,-16.233 5.196,-19.106c3.672,-6.039 9.373,-9.433 12.911,-11.388c5.636,-3.114 7.64,-2.773 2.047,-2.112c-0.815,0.096 -2.284,0.817 -4.406,2.163Z" style="fill-opacity:0.05;"/><path id="lieze-haar-lok-2" d="M51.898,73.317c-5.328,1.4 -7.361,1.201 -10.853,3.459c-5.237,3.388 -11.957,6.246 -21.332,14.257c-6.25,5.341 -10.504,20.586 -10.925,34.008c6.008,-24.363 10.077,-30.821 15.269,-34.949c7.788,-6.193 13.786,-9.757 19.877,-12.204c5.596,-2.248 7.215,-2.285 11.059,-3.536c6.02,-1.958 7.604,-2.667 2.011,-2.006c-0.815,0.096 -2.553,0.3 -5.106,0.971Z" style="fill-opacity:0.05;"/><ellipse id="lieze-oog-links" cx="28.519" cy="113.069" rx="2.524" ry="2.181"/><ellipse id="lieze-oog-rechts" cx="57.71" cy="113.069" rx="2.524" ry="2.181"/><path id="lieze-mond1" serif:id="lieze-mond" d="M32.709,133.592c2.442,3.495 6.075,5.242 10.899,5.242c4.823,-0 8.067,-1.747 9.729,-5.242l-20.628,0Z" style="fill:#e0a690;"/><path id="lieze-kleren" d="M57.484,154.861c0,-0 15.149,3.287 16.74,3.509c6.318,0.881 10.221,10.254 11.845,27.647l0.048,0.53l-86.037,-0c1.592,-17.737 5.551,-27.255 11.917,-28.255c0.375,-0.059 16.247,-3.315 16.247,-3.315c1.321,10.613 9.913,12.859 14.262,12.927c4.512,0.07 13.749,-2.011 14.978,-13.043Z" style="fill:#a662ad;"/><path id="lieze-kleren-rood" d="M57.484,154.861c0,-0 15.149,3.287 16.74,3.509c6.318,0.881 10.221,10.254 11.845,27.647l0.048,0.53l-86.037,-0c1.592,-17.737 5.551,-27.255 11.917,-28.255c0.375,-0.059 16.247,-3.315 16.247,-3.315c1.321,10.613 9.913,12.859 14.262,12.927c4.512,0.07 13.749,-2.011 14.978,-13.043Z" style="fill:#de605c;"/><g id="strik"><path d="M14.024,87.405c-0.417,-0.15 -0.417,-0.742 -0,-1.777c0.313,-0.78 0.722,-2.843 1.482,-4.062c0.166,-0.266 0.481,-0.334 0.947,-0.204c0.727,0.158 1.753,0.799 3.077,1.923c0.938,0.796 1.479,2.212 3.004,3.736c0.418,0.418 1.326,1.021 2.722,1.809c0.831,0.294 1.4,0.294 1.705,-0c0.885,-0.851 1.396,-3.015 1.838,-3.766c0.671,-1.14 0.578,-1.733 -0.28,-1.779c-2.093,0.108 -3.644,0.324 -4.651,0.648c-1.771,0.569 -3.749,2.076 -4.971,2.424c-2.265,0.643 -3.889,0.993 -4.873,1.048Z" style="fill:#a662ad;"/><path id="strik-schaduw-1" d="M15.672,83.492l0.442,-0.941c0.574,0.119 1.093,0.322 1.557,0.611c0.464,0.289 1.131,0.822 2,1.601c-1.131,-0.569 -1.96,-0.938 -2.488,-1.106c-0.529,-0.168 -1.033,-0.223 -1.511,-0.165Z" style="fill-opacity:0.2;"/><path id="strik-schaduw-2" d="M14.485,86.459l0.443,-0.941c0.494,0.142 1.075,0.213 1.742,0.213c0.667,-0 1.613,-0.071 2.837,-0.213c-1.327,0.436 -2.323,0.708 -2.99,0.818c-0.667,0.11 -1.344,0.151 -2.032,0.123Z" style="fill-opacity:0.2;"/><path id="strik-schaduw-3" d="M27.914,84.841l0.317,-0.808c-1.004,0.106 -1.944,0.25 -2.819,0.43c-0.875,0.18 -1.942,0.417 -3.2,0.711c1.668,-0.17 2.824,-0.281 3.469,-0.333c0.644,-0.052 1.389,-0.052 2.233,-0Z" style="fill-opacity:0.2;"/><path id="strik-schaduw-4" d="M26.334,88.381l0.724,-1.193c-0.725,-0.072 -1.476,-0.203 -2.255,-0.394c-0.779,-0.19 -1.742,-0.632 -2.888,-1.323c1.395,1.043 2.295,1.718 2.699,2.025c0.405,0.307 0.978,0.602 1.72,0.885Z" style="fill-opacity:0.2;"/></g><g id="strik-rood"><path d="M14.024,87.405c-0.417,-0.15 -0.417,-0.742 -0,-1.777c0.313,-0.78 0.722,-2.843 1.482,-4.062c0.166,-0.266 0.481,-0.334 0.947,-0.204c0.727,0.158 1.753,0.799 3.077,1.923c0.938,0.796 1.479,2.212 3.004,3.736c0.418,0.418 1.326,1.021 2.722,1.809c0.831,0.294 1.4,0.294 1.705,-0c0.885,-0.851 1.396,-3.015 1.838,-3.766c0.671,-1.14 0.578,-1.733 -0.28,-1.779c-2.093,0.108 -3.644,0.324 -4.651,0.648c-1.771,0.569 -3.749,2.076 -4.971,2.424c-2.265,0.643 -3.889,0.993 -4.873,1.048Z" style="fill:#f15858;"/><path id="strik-schaduw-11" serif:id="strik-schaduw-1" d="M15.672,83.492l0.442,-0.941c0.574,0.119 1.093,0.322 1.557,0.611c0.464,0.289 1.131,0.822 2,1.601c-1.131,-0.569 -1.96,-0.938 -2.488,-1.106c-0.529,-0.168 -1.033,-0.223 -1.511,-0.165Z" style="fill-opacity:0.2;"/><path id="strik-schaduw-21" serif:id="strik-schaduw-2" d="M14.485,86.459l0.443,-0.941c0.494,0.142 1.075,0.213 1.742,0.213c0.667,-0 1.613,-0.071 2.837,-0.213c-1.327,0.436 -2.323,0.708 -2.99,0.818c-0.667,0.11 -1.344,0.151 -2.032,0.123Z" style="fill-opacity:0.2;"/><path id="strik-schaduw-31" serif:id="strik-schaduw-3" d="M27.914,84.841l0.317,-0.808c-1.004,0.106 -1.944,0.25 -2.819,0.43c-0.875,0.18 -1.942,0.417 -3.2,0.711c1.668,-0.17 2.824,-0.281 3.469,-0.333c0.644,-0.052 1.389,-0.052 2.233,-0Z" style="fill-opacity:0.2;"/><path id="strik-schaduw-41" serif:id="strik-schaduw-4" d="M26.334,88.381l0.724,-1.193c-0.725,-0.072 -1.476,-0.203 -2.255,-0.394c-0.779,-0.19 -1.742,-0.632 -2.888,-1.323c1.395,1.043 2.295,1.718 2.699,2.025c0.405,0.307 0.978,0.602 1.72,0.885Z" style="fill-opacity:0.2;"/></g></g><clipPath id="_clip2"><rect id="Ellen" x="176.528" y="0" width="116.595" height="186.612"/></clipPath><g clip-path="url(#_clip2)"><g id="Ellen1" serif:id="Ellen"><path id="ellen-lichaam" d="M176.528,186.661c2.153,-27.634 7.531,-42.23 16.137,-43.788c10.134,-1.835 22.645,-5.789 26.518,-6.959c1.861,-0.562 2.929,-1.098 3.679,-1.766c1.667,-1.481 1.571,-2.807 1.597,-3.002c0.142,-1.089 0.221,-2.474 0.236,-4.154c-16.705,-3.897 -29.454,-17.775 -34.646,-36.018c-0.708,0.361 -1.463,0.556 -2.247,0.556c-4.096,-0 -7.417,-5.324 -7.417,-11.892c0,-6.493 3.246,-11.77 7.278,-11.889c1.969,-28.63 22.133,-51.135 46.718,-51.135c24.585,0 45.016,22.505 47.012,51.136l0.037,-0.001l0.123,-0.002c4.096,0 7.417,5.324 7.417,11.891c0,6.568 -3.321,11.892 -7.417,11.892c-0.89,-0 -1.743,-0.251 -2.533,-0.712c-5.167,18.102 -17.838,31.932 -34.341,36.03c0.007,1.673 0.079,3.039 0.217,4.1c0.026,0.197 -0.07,1.527 1.597,3.014c0.75,0.67 1.818,1.208 3.679,1.772c3.873,1.174 16.384,5.142 26.518,6.983c8.606,1.564 13.985,16.212 16.137,43.944l-116.299,-0Z" style="fill:#fddbd0;"/><path id="ellen-haar" d="M184.821,26.648c15.945,-34.667 64.421,-25.753 68.823,-24.138c4.402,1.616 6.57,2.642 7.898,3.601c1.328,0.959 1.088,2.092 0.485,2.906c11.965,4.856 19.494,13.358 22.588,25.504c3.094,12.147 5.346,30.025 1.194,55.844c-2.128,13.338 -3.24,22.089 -3.335,26.25c-0.143,6.243 0.388,12.924 0.388,15.193c-0,2.269 -0.6,7.498 -3.853,10.578c-0.926,0.877 -2.501,0.814 -4.724,-0.188l-0.629,-0.13l-0.316,-0.067l-0.633,-0.136l-0.635,-0.14l-0.319,-0.072l-0.638,-0.144l-0.639,-0.148l-0.639,-0.151l-0.639,-0.153l-0.639,-0.155l-0.637,-0.157l-0.636,-0.159l-0.633,-0.161l-0.945,-0.243l-0.625,-0.164l-0.931,-0.246l-0.92,-0.247l-0.906,-0.248l-1.186,-0.328l-0.87,-0.245l-1.131,-0.322l-1.093,-0.315l-1.308,-0.382l-0.749,-0.222l-1.413,-0.421l-1.487,-0.449l-3.031,-0.923c-0.475,-0.147 -0.896,-0.292 -1.273,-0.439l-0.139,-0.055l-0.241,-0.099c-0.818,-0.349 -1.403,-0.711 -1.867,-1.123c-0.773,-0.687 -1.167,-1.34 -1.37,-1.862l-0.025,-0.065l-0.039,-0.112l-0.033,-0.107l-0.028,-0.102l-0.012,-0.05l-0.011,-0.048l-0.02,-0.091l-0.015,-0.086l-0.012,-0.08l-0.009,-0.074l-0.01,-0.099l-0.013,-0.215l-0.034,-0.284l-0.031,-0.285c-0.01,-0.097 -0.019,-0.196 -0.028,-0.297l-0.013,-0.154l-0.023,-0.317l-0.021,-0.33l-0.018,-0.342l-0.009,-0.176l-0.014,-0.362l-0.006,-0.186l-0.009,-0.38l-0.008,-0.394l-0.002,-0.202l-0.004,-0.624c21.007,-5.507 36.72,-27.72 36.72,-54.286c-0,-12.005 -2.941,-21.472 -7.156,-29.485c-6.566,-12.483 -16.65,-20.534 -26.803,-22.202c-1.735,1.357 -9.759,9.122 -16.868,14.814c-8.482,6.794 -16.659,12.207 -24.998,21.825c-10.097,11.644 -15.463,25.449 -15.463,31.708c2.514,9.436 12.621,31.166 34.57,37.712l-0.002,0.222l-0.006,0.435l-0.005,0.211l-0.01,0.414l-0.014,0.399l-0.017,0.386l-0.02,0.372l-0.011,0.18l-0.024,0.351c-0.03,0.393 -0.065,0.759 -0.106,1.098l-0.023,0.179l-0.013,0.215l-0.014,0.135l-0.01,0.077l-0.014,0.083l-0.017,0.089l-0.01,0.046l-0.023,0.098l-0.029,0.102l-0.016,0.053l-0.035,0.109l-0.042,0.115c-0.203,0.523 -0.597,1.179 -1.373,1.869c-0.729,0.647 -1.758,1.171 -3.52,1.716l-3.859,1.173l-1.588,0.477l-1.234,0.365l-1.307,0.382l-0.816,0.236l-1.122,0.32l-0.864,0.244l-0.882,0.246l-0.897,0.247l-0.911,0.247l-0.924,0.247l-0.621,0.164l-0.626,0.164l-0.944,0.243l-0.634,0.161l-0.635,0.159l-0.638,0.157l-0.638,0.155l-0.64,0.153l-0.799,0.188l-0.798,0.183l-0.637,0.144l-0.794,0.174l-0.791,0.169l-0.785,0.162l-0.157,0.032l-0.623,0.124c-0.517,0.102 -1.031,0.199 -1.538,0.291c-3.139,0.568 -6.261,-9.16 -6.475,-11.246c-0.142,-1.391 -0.176,-6.329 -0.101,-14.816l0.028,-1.285l0.022,-1.26l0.013,-0.826l0.011,-0.814l0.009,-0.803l0.008,-0.791l0.005,-0.78l0.003,-0.768l0.002,-1.131l-0.001,-0.74l-0.003,-0.728l-0.009,-1.071l-0.008,-0.7l-0.009,-0.688l-0.012,-0.676l-0.014,-0.665l-0.014,-0.602l-0.017,-0.54c-0.016,-0.446 -0.036,-0.882 -0.06,-1.308l-0.031,-0.507c-0.005,-0.084 -0.011,-0.167 -0.016,-0.25l-0.036,-0.493c-0.019,-0.244 -0.039,-0.485 -0.061,-0.723l-0.045,-0.472c-0.023,-0.233 -0.047,-0.464 -0.073,-0.692l-0.053,-0.451l-0.055,-0.444c-0.01,-0.073 -0.02,-0.146 -0.029,-0.219l-0.061,-0.432l-0.063,-0.425l-0.066,-0.418c-0.011,-0.069 -0.022,-0.138 -0.034,-0.207l-0.07,-0.408l-0.072,-0.402c-0.025,-0.132 -0.05,-0.264 -0.075,-0.395l-0.078,-0.389l-0.08,-0.384l-0.081,-0.377l-0.085,-0.373l-0.086,-0.367l-0.088,-0.362l-0.09,-0.357c-0.015,-0.059 -0.03,-0.118 -0.045,-0.177l-0.093,-0.35l-0.094,-0.346l-0.096,-0.342c-0.016,-0.057 -0.032,-0.113 -0.048,-0.17l-0.148,-0.503l-0.15,-0.495l-0.102,-0.326l-0.102,-0.323l-0.156,-0.48l-0.158,-0.475l-0.213,-0.625l-0.216,-0.618l-0.38,-1.071l-0.561,-1.57l-0.265,-0.751l-0.196,-0.567l-0.129,-0.381l-0.192,-0.576l-0.188,-0.583l-0.124,-0.394l-0.121,-0.397l-0.119,-0.402l-0.117,-0.407c-0.019,-0.068 -0.039,-0.136 -0.058,-0.205l-0.113,-0.415c-0.653,-2.435 -1.169,-5.169 -1.404,-8.545c-0.864,-12.442 2.83,-36.309 5.792,-42.75Z" style="fill:#7c2f17;"/><path id="ellen-haar-lok-1" d="M205.603,9.657c-7.359,5.498 -12.213,10.234 -14.562,14.209c-3.668,6.207 -5.542,16.494 -6.725,22.248c-2.32,11.281 -2.864,18.658 -1.633,22.131c0.326,-4.587 0.871,-8.239 1.633,-10.959c3.585,-12.79 8.542,-23.977 10.903,-28.472c4.964,-9.449 11.557,-11.441 16.339,-14.5c7.619,-4.873 7.56,-9.075 0,-8.041c-1.101,0.151 -3.086,1.279 -5.955,3.384Z" style="fill:#fff;fill-opacity:0.05;"/><path id="ellen-haar-lok-2" d="M246.248,9.657c-5.535,5.062 -10.662,9.36 -15.382,12.894c-7.08,5.3 -8.704,6.637 -21.376,19.17c-8.448,8.355 -13.205,16.4 -14.271,24.134c3.875,-6.21 9.321,-12.545 16.339,-19.005c10.527,-9.689 17.318,-15.383 24.578,-21.287c7.26,-5.904 11.285,-10.308 16.067,-13.367c7.619,-4.872 7.561,-6.957 0,-5.923c-1.101,0.151 -3.086,1.279 -5.955,3.384Z" style="fill:#fff;fill-opacity:0.05;"/><circle id="ellen-oog-links" cx="214.97" cy="71.656" r="3.412"/><circle id="ellen-oog-rechts" cx="254.429" cy="71.656" r="3.412"/><path id="ellen-mond" d="M220.634,103.765c3.301,5.467 8.211,8.201 14.732,8.201c6.52,-0 10.904,-2.734 13.152,-8.201l-27.884,-0Z" style="fill:#e0a690;"/><path id="ellen-kleren" d="M265.155,139.997l0.807,0.21l0.946,0.242l0.634,0.16l0.955,0.237l0.319,0.078l0.638,0.154l0.959,0.227l0.957,0.221l0.637,0.143l0.635,0.14l0.316,0.069l0.632,0.134l0.785,0.163l0.779,0.156c0.517,0.102 1.03,0.199 1.536,0.291c8.52,1.543 13.877,15.87 16.071,42.98l0.066,1.122l-116.299,0c2.153,-27.645 7.532,-42.544 16.137,-44.102c0.506,-0.092 1.019,-0.189 1.536,-0.291l0.779,-0.156l0.785,-0.163l0.632,-0.134l0.793,-0.174l0.795,-0.178l0.638,-0.147l0.639,-0.149l0.639,-0.152l0.412,-0.099c1.786,16.541 12.587,24.811 32.402,24.811c19.966,0 30.779,-8.598 32.44,-25.793Z" style="fill:#2f346e;"/><path id="ellen-kleren1" serif:id="ellen-kleren" d="M265.155,139.997l0.807,0.21l0.946,0.242l0.634,0.16l0.955,0.237l0.319,0.078l0.638,0.154l0.959,0.227l0.957,0.221l0.637,0.143l0.635,0.14l0.316,0.069l0.632,0.134l0.785,0.163l0.779,0.156c0.517,0.102 1.03,0.199 1.536,0.291c8.52,1.543 13.877,15.87 16.071,42.98l0.066,1.122l-116.299,0c2.153,-27.645 7.532,-42.544 16.137,-44.102c0.506,-0.092 1.019,-0.189 1.536,-0.291l0.779,-0.156l0.785,-0.163l0.632,-0.134l0.793,-0.174l0.795,-0.178l0.638,-0.147l0.639,-0.149l0.639,-0.152l0.412,-0.099c1.786,16.541 12.587,24.811 32.402,24.811c19.966,0 30.779,-8.598 32.44,-25.793Z" style="fill:#9e3311;"/><path id="ellen-kleren2" serif:id="ellen-kleren" d="M265.155,139.997l0.807,0.21l0.946,0.242l0.634,0.16l0.955,0.237l0.319,0.078l0.638,0.154l0.959,0.227l0.957,0.221l0.637,0.143l0.635,0.14l0.316,0.069l0.632,0.134l0.785,0.163l0.779,0.156c0.517,0.102 1.03,0.199 1.536,0.291c8.52,1.543 13.877,15.87 16.071,42.98l0.066,1.122l-116.299,0c2.153,-27.645 7.532,-42.544 16.137,-44.102c0.506,-0.092 1.019,-0.189 1.536,-0.291l0.779,-0.156l0.785,-0.163l0.632,-0.134l0.793,-0.174l0.795,-0.178l0.638,-0.147l0.639,-0.149l0.639,-0.152l0.412,-0.099c1.786,16.541 12.587,24.811 32.402,24.811c19.966,0 30.779,-8.598 32.44,-25.793Z" style="fill:#c4aa06;"/></g></g><clipPath id="_clip3"><rect id="Ruben" x="70.792" y="0.297" width="123.716" height="186.315"/></clipPath><g clip-path="url(#_clip3)"><g id="Ruben1" serif:id="Ruben"><path id="ruben-lichaam" d="M73.007,186.673c2.208,-30.152 7.725,-46.077 16.551,-47.777c10.395,-2.003 23.227,-6.317 27.199,-7.593c1.909,-0.614 3.004,-1.199 3.774,-1.927c1.71,-1.616 1.611,-3.063 1.638,-3.276c0.137,-1.122 0.155,-2.695 0.053,-4.72c-8.015,-2.375 -14.649,-7.62 -20.832,-15.133c-5.462,-6.639 -10.487,-15.033 -13.624,-24.406c-0.964,0.753 -2.037,1.173 -3.168,1.173c-4.2,0 -7.604,-5.795 -7.604,-12.943c-0,-7.148 3.404,-12.943 7.604,-12.943l0,-0c2.02,-31.162 22.689,-55.656 47.89,-55.656c25.204,0 45.875,24.501 47.89,55.668c0.107,-0.008 0.215,-0.012 0.323,-0.012c4.2,-0 7.604,5.795 7.604,12.943c0,7.148 -3.404,12.943 -7.604,12.943c-1.215,0 -2.364,-0.485 -3.382,-1.348c-3.198,9.508 -8.48,17.786 -14.469,24.581c-5.91,6.705 -12.304,12.088 -19.794,14.751c-0.082,2.328 -0.057,4.028 0.075,5.102c0.026,0.213 -0.072,1.66 1.637,3.276c0.77,0.728 1.865,1.313 3.774,1.927c3.972,1.276 16.804,5.59 27.199,7.593c8.826,1.7 14.343,17.625 16.551,47.777l-119.285,0Z" style="fill:#f2d8ce;"/><g id="ruben-kleren"><path id="Shape" d="M146.996,126.32c-0.116,1.209 -0.681,3.138 -1.691,3.558c-1.1,0.225 -2.295,-2.661 -2.238,-4.371c0,-0 2.407,-0.189 3.929,0.813Zm-24.74,-1.25l-0.06,0.794l-0.042,0.483l-0.014,0.148l-0.011,0.084l-0.014,0.09l-0.018,0.097l-0.01,0.051l-0.024,0.106l-0.029,0.112l-0.016,0.057l-0.037,0.12l-0.043,0.125c-0.207,0.571 -0.611,1.287 -1.407,2.039c-0.373,0.353 0,0 -0.367,0.351c-0.964,-0.404 -1.81,-2.852 -2.538,-3.977c1.555,-0.824 3.192,-0.655 4.63,-0.68Z"/><path d="M146.994,126.306c0.922,1.638 2.785,4.57 3.38,5.476c3.347,0.943 6.914,2.117 14.363,4.48l0.971,0.264l0.65,0.175l0.979,0.258l0.328,0.085l0.654,0.168l0.983,0.248l0.982,0.24l0.653,0.157l0.651,0.152l0.325,0.075l0.648,0.147l0.805,0.177l0.799,0.171c0.531,0.111 1.056,0.216 1.576,0.317c8.738,1.683 14.233,17.308 16.484,46.877l0.067,0.9l-119.285,0c2.208,-30.152 7.725,-46.077 16.551,-47.777c0.52,-0.101 1.046,-0.206 1.576,-0.317l0.799,-0.171l5.047,-1.196c9.569,-2.668 14.285,-4.121 17.9,-5.392c0.442,-0.97 2.022,-4.498 2.746,-6.112c-0,-0 4.381,6.021 10.267,7.101c4.417,7.244 4.417,20.054 4.417,20.054c-0,0 0.034,-11.965 4.484,-20.054c8.249,-1.506 10.2,-6.503 10.2,-6.503Z" style="fill:#202c42;"/><path id="fold-links" d="M114.943,131.881c2.905,4.111 9.376,6.445 15.784,8.16c0.194,2.404 -0.505,35.476 -0.505,46.632c2.428,0 2.428,0 4.336,-0.061c-0,-18.154 0.307,-25.342 -0,-32.073c-0.523,-4.93 -4.937,-18.105 -5.298,-19.044c-0.24,-0.627 -0.696,-1.522 -1.367,-2.686c-0.667,0.525 -2.513,2.716 -3.667,4.821c-2.519,-1.012 -6.752,-2.795 -9.283,-5.749Z"/><path id="fold-rechts" d="M150.367,131.785c-2.721,3.737 -9.382,6.181 -16.332,8.296c0.651,-2.415 1.137,-3.633 1.508,-4.578c0.247,-0.629 0.596,-1.531 1.244,-2.698c1.25,0.964 2.458,2.748 3.423,4.754c2.267,-0.419 6.869,-2.221 10.157,-5.774Z"/></g><path id="baard" d="M87.945,81.928c12.541,13.948 19.311,20.97 20.312,21.067c1.5,0.146 2.773,-8.922 8.325,-10.533c5.552,-1.611 25.997,-2.095 30.412,-0c4.415,2.095 5.037,10.679 6.51,10.533c0.977,-0.097 8.864,-7.055 23.66,-20.875c-3.212,9.318 -8.42,17.441 -14.314,24.127c-8.509,9.654 -18.022,16.568 -30.362,16.568c-12.937,-0 -22.459,-6.07 -31.098,-16.568c-5.215,-6.338 -10.031,-14.277 -13.187,-23.141l-0.258,-1.178Z" style="fill:#c8c6aa;fill-opacity:0.3;"/><path id="ruben-haar" d="M177.843,58.575c-2.102,-16.324 -7.1,-27.692 -10.688,-32.421c-12.485,-16.455 -28.795,-11.683 -35.546,-11.683c-7.855,-0 -24.471,-5.412 -35.898,14.394c-2.406,4.169 -7.024,13.9 -8.482,29.1l-2.631,-0.837c-0.299,-3.399 -0.299,-6.068 0,-8.008c1.434,-9.292 4.408,-17.162 6.391,-20.377c5.073,-8.225 10.643,-15.133 15.962,-19.388c9.861,-7.886 19.149,-8.997 24.837,-8.997c7.597,-0 25.296,3.083 37.685,20.752c2.652,3.782 6.671,10.503 9.189,20.568c0.437,1.746 1.139,4.292 1.521,7.442c0.179,1.479 0.298,4.148 0.356,8.008l-2.696,1.447Z" style="fill:#c8c6aa;"/><circle id="ruben-oog-links" cx="109.757" cy="60.849" r="3.721"/><circle id="ruben-oog-rechts" cx="152.793" cy="60.849" r="3.721"/><path id="ruben-mond" d="M116.582,95.869c3.6,5.963 8.956,8.944 16.068,8.944c7.111,0 11.893,-2.981 14.344,-8.944l-30.412,-0Z" style="fill:#e0a690;"/></g></g></g></g></svg>