<svg id="eb4PDIFmNWU1" xmlns="http://www.w3.org/2000/svg" viewBox="0 0 1415 789" shape-rendering="geometricPrecision" text-rendering="geometricPrecision"><g transform="translate(-1523.052979-3023.358643)" clip-rule="evenodd"><g transform="matrix(1 0 0 1.05387 1594.26 1438.57)" clip-rule="evenodd"><g clip-path="url(#eb4PDIFmNWU79)" clip-rule="evenodd"><g><g transform="matrix(1 0 0 0.948885-98.3183 907.028)" clip-rule="evenodd"><g transform="matrix(1.23617 0 0 1.23617 1309.177871 1236.762671)" clip-rule="evenodd"><g transform="translate(-103.5-147.5)" clip-rule="evenodd"><g clip-rule="evenodd"><path d="M26,295c5.295-18.179,11.329-33.592,18.102-46.24C50.876,236.113,59.48,224.193,69.914,213L104,218.969L138.086,213c10.434,11.193,19.038,23.113,25.812,35.76C170.671,261.408,176.705,276.821,182,295h-156Z" clip-rule="evenodd" fill="#abc2a6" fill-rule="evenodd" stroke-linejoin="round" stroke-miterlimit="2"/><path d="M103.716,37c47.594,0,87.056,38.004,90.096,86.033C201.166,123.618,207,132.11,207,142.5c0,10.77-6.268,19.5-14,19.5-1.529,0-3.002-.342-4.379-.973C176.346,196.047,144.173,221,103.716,221c-40.61,0-72.528-25.143-84.546-60.373C17.571,161.513,15.826,162,14,162c-7.732,0-14-8.73-14-19.5s6.268-19.5,14-19.5c.062,0,.125.001.187.002C17.2,74.988,56.132,37,103.716,37Z" clip-rule="evenodd" fill="#fddbd0" fill-rule="evenodd" stroke-linejoin="round" stroke-miterlimit="2"/><ellipse rx="4" ry="5.636" transform="translate(68.66 128.783)" clip-rule="evenodd" fill-rule="evenodd" stroke-linejoin="round" stroke-miterlimit="2"/><ellipse rx="4" ry="5.636" transform="translate(139.058 128.783)" clip-rule="evenodd" fill-rule="evenodd" stroke-linejoin="round" stroke-miterlimit="2"/><g transform="translate(72.4954 162.653)" clip-rule="evenodd"><g transform="matrix(1 0 0-1 0 46.1592)" clip-rule="evenodd"><path d="M30.505,0.078c7.701,0,12.722,1.912,15.062,5.734c3.511,5.734,24.251,27.492,12.938,38-5.621,5.222-15.526.117-26.848,0-11.466-.118-24.346,4.688-29.152,0-9.553-9.317,11.017-31.513,14.989-38c2.648-4.324,6.984-6.236,13.011-5.734Z" clip-rule="evenodd" fill="#fff" fill-rule="evenodd" stroke-linejoin="round" stroke-miterlimit="2"/></g><circle r="14.662" transform="translate(30.842 21.685)" clip-rule="evenodd" fill="#afadad" fill-rule="evenodd" stroke-linejoin="round" stroke-miterlimit="2"/><circle r="14.662" transform="translate(30.842 20.009)" clip-rule="evenodd" fill="#d8d8d8" fill-rule="evenodd" stroke-linejoin="round" stroke-miterlimit="2"/></g><g transform="translate(14.6999 0.715409)" clip-rule="evenodd"><path d="M88.118,24.565c39.013-.013,70.906,20.745,83.686,56.77h-164.882C19.563,43.469,47.491,24.58,88.118,24.565Z" clip-rule="evenodd" fill="#abc2a6" fill-rule="evenodd" stroke-linejoin="round" stroke-miterlimit="2"/><path d="M2.25,98.757c4.793,0,164.141.958,172.852.958c8.71,0-.749-7.666,1-10.972c1.748-3.307,3.697-3.89,0-6.962-3.698-3.073-164.279-3.456-171.462-.958s-1.871,5.66-2.39,9.551c-.518,3.89-4.793,8.383,0,8.383Z" clip-rule="evenodd" fill="#446144" fill-rule="evenodd" stroke-linejoin="round" stroke-miterlimit="2"/></g><g transform="translate(-1.42957 1.53771)" clip-rule="evenodd"><circle r="9.129" transform="translate(104.93 23.807)" clip-rule="evenodd" fill="#446144" fill-rule="evenodd" stroke-linejoin="round" stroke-miterlimit="2"/></g></g></g></g><g transform="matrix(1.23617 0 0 1.23617 991.203289 1030.894275)" clip-rule="evenodd"><g transform="translate(-196.5-314.5)" clip-rule="evenodd"><g clip-path="url(#eb4PDIFmNWU40)" clip-rule="evenodd"><g><g clip-rule="evenodd"><g transform="matrix(1 0 0 1.00204 0-.113986)" clip-rule="evenodd"><path d="M0,628c7.255-92.955,25.385-142.053,54.39-147.294c34.161-6.173,76.329-19.472,89.383-23.407c6.273-1.892,9.872-3.695,12.402-5.939c5.617-4.984,5.295-9.444,5.381-10.101.48-3.663.745-8.321.795-13.974-56.305-13.108-99.278-59.788-116.776-121.154C43.187,307.345,40.641,308,38,308c-13.807,0-25-17.909-25-40c0-21.842,10.941-39.594,24.533-39.993C44.169,131.701,112.135,56,195,56c82.866,0,151.734,75.703,158.461,172.01l.126-.005L354,228c13.807,0,25,17.909,25,40s-11.193,40-25,40c-2.999,0-5.875-.845-8.54-2.395-17.413,60.89-60.124,107.414-115.747,121.199.021,5.625.265,10.223.731,13.792.086.66-.236,5.135,5.381,10.136c2.53,2.253,6.129,4.062,12.402,5.96c13.054,3.95,55.222,17.296,89.383,23.491C366.615,485.443,384.745,534.715,392,628h-392Z" clip-rule="evenodd" fill="#fddbd0" fill-rule="evenodd" stroke-linejoin="round" stroke-miterlimit="2"/></g><path d="M27.951,89.822C81.695,-27.029,245.091,3.016,259.928,8.462s22.145,8.905,26.622,12.137c4.477,3.231,3.666,7.05,1.636,9.794c40.329,16.369,65.707,45.024,76.135,85.965c10.428,40.942,18.019,101.203,4.024,188.228-7.172,44.96-10.919,74.454-11.241,88.481-.483,21.042,1.306,43.559,1.306,51.208s-2.02,25.273-12.985,35.656c-3.121,2.956-8.429,2.745-15.923-.634l-2.12-.44-1.064-.225-2.134-.459-2.143-.472-1.073-.24-2.15-.488-2.154-.498-2.154-.507-2.155-.516-2.152-.523-2.148-.53-2.143-.536-2.135-.542-3.185-.82-2.108-.551-3.137-.831-3.099-.833-3.056-.834-3.998-1.108-2.933-.824-3.811-1.085-3.685-1.062-4.407-1.288-2.527-.747-4.762-1.421-5.011-1.514-10.217-3.111c-1.6-.494-3.021-.984-4.291-1.477l-.469-.186-.81-.335c-2.759-1.176-4.731-2.397-6.295-3.785-2.605-2.314-3.934-4.516-4.618-6.277l-.082-.218-.131-.377-.112-.362-.095-.344-.041-.166-.038-.162-.064-.309-.052-.289-.041-.27-.031-.25-.032-.333-.044-.726-.117-.954-.103-.961c-.033-.327-.064-.662-.094-1.003l-.043-.518-.08-1.069-.071-1.111-.061-1.155-.027-.593-.047-1.219-.02-.626-.034-1.284-.024-1.327-.008-.679-.012-2.104c70.805-18.561,123.768-93.436,123.768-182.979c0-40.463-9.913-72.374-24.12-99.383-22.133-42.074-56.123-69.211-90.345-74.835-5.845,4.576-32.893,30.748-56.853,49.935-28.591,22.897-56.151,41.142-84.261,73.561C64.011,232.371,45.924,278.901,45.924,300c8.475,31.805,42.54,105.05,116.523,127.113l-.007.749-.021,1.463-.015.715-.036,1.393-.047,1.346-.057,1.3-.067,1.253-.037.609-.082,1.183c-.099,1.325-.218,2.559-.357,3.701l-.075.601-.045.726-.046.455-.036.26-.046.28-.058.3-.034.156-.078.328-.095.344-.054.179-.121.369-.141.385c-.682,1.766-2.011,3.976-4.628,6.301-2.457,2.182-5.923,3.948-11.865,5.783l-13.004,3.955-5.354,1.606-4.159,1.232-4.406,1.288-2.752.794-3.78,1.08-2.913.822-2.971.828-3.025.832-3.071.835-3.112.833-2.095.553-2.109.551-3.184.82-2.135.542-2.143.536-2.148.53-2.153.523-2.154.516-2.693.633-2.691.617-2.148.483-2.676.588-2.664.568-2.648.548-.527.107-2.101.419c-1.745.343-3.475.67-5.184.979-10.581,1.915-21.106-30.875-21.826-37.905-.479-4.688-.593-21.333-.339-49.938l.091-4.334.078-4.247.043-2.783.037-2.744.031-2.706.024-2.667.018-2.628.012-2.59.005-3.812-.004-2.493-.011-2.455-.028-3.609-.026-2.358-.033-2.319-.04-2.28-.046-2.242-.049-2.03-.057-1.82c-.054-1.503-.121-2.972-.202-4.408l-.103-1.708c-.018-.282-.037-.563-.056-.842l-.121-1.662c-.064-.824-.132-1.636-.205-2.438l-.15-1.59c-.078-.787-.16-1.565-.247-2.332l-.177-1.521-.189-1.496c-.032-.247-.065-.493-.098-.738l-.203-1.457-.213-1.433-.222-1.41c-.038-.233-.076-.465-.115-.696l-.236-1.375-.244-1.354c-.083-.448-.167-.892-.253-1.332l-.261-1.312-.269-1.293-.276-1.273-.283-1.255-.29-1.237-.297-1.22-.303-1.205c-.051-.199-.102-.398-.154-.596l-.312-1.181-.317-1.166-.323-1.153c-.054-.191-.109-.382-.163-.571L25.5,300l-.507-1.669-.343-1.1-.346-1.089-.526-1.617-.532-1.599-.719-2.107-.725-2.085-1.281-3.609-1.892-5.291-.892-2.532-.662-1.912-.436-1.284-.646-1.942-.635-1.965-.415-1.326-.409-1.34-.402-1.354-.394-1.371c-.065-.23-.13-.46-.194-.692l-.382-1.398c-2.201-8.21-3.941-17.423-4.731-28.804-2.912-41.936,9.536-122.385,19.52-144.092Z" clip-rule="evenodd" fill="#7c2f17" fill-rule="evenodd" stroke-linejoin="round" stroke-miterlimit="2"/><path d="M98,32.551C73.196,51.081,56.836,67.045,48.918,80.442c-12.365,20.924-18.681,55.597-22.669,74.992-7.818,38.023-9.652,62.888-5.503,74.593c1.1-15.458,2.934-27.77,5.503-36.936C38.333,149.978,55.041,112.273,63,97.121c16.731-31.85,38.953-38.564,55.073-48.874c25.679-16.424,25.483-30.588,0-27.102-3.712.507-10.403,4.309-20.073,11.406Z" clip-rule="evenodd" fill="#fff" fill-opacity="0.05" fill-rule="evenodd" stroke-linejoin="round" stroke-miterlimit="2"/><path d="M235,32.551C216.343,49.613,199.06,64.1,183.152,76.01c-23.863,17.866-29.338,22.371-72.051,64.616C82.626,168.789,66.592,195.904,63,221.971c13.061-20.931,31.419-42.283,55.073-64.056c35.482-32.659,58.373-51.85,82.843-71.751c24.469-19.902,38.037-34.745,54.157-45.054c25.679-16.424,25.483-23.451,0-19.965-3.712.507-10.403,4.309-20.073,11.406Z" clip-rule="evenodd" fill="#fff" fill-opacity="0.05" fill-rule="evenodd" stroke-linejoin="round" stroke-miterlimit="2"/><circle r="11.5" transform="translate(129.573 241.527)" clip-rule="evenodd" fill-rule="evenodd" stroke-linejoin="round" stroke-miterlimit="2"/><circle r="11.5" transform="translate(262.573 241.527)" clip-rule="evenodd" fill-rule="evenodd" stroke-linejoin="round" stroke-miterlimit="2"/><path d="M148.664,349.753c11.126,18.428,27.678,27.642,49.656,27.642s36.755-9.214,44.331-27.642h-93.987Z" clip-rule="evenodd" fill="#e0a690" fill-rule="evenodd" stroke-linejoin="round" stroke-miterlimit="2"/><path d="M298.73,471.877l2.718.708l3.19.817l2.137.54l3.218.798l1.075.262l2.152.52l3.229.765l3.227.743l2.146.483l2.141.472l1.067.232l2.128.453l2.646.548l2.626.527c1.744.343,3.472.67,5.18.979c28.715,5.202,46.771,53.492,54.169,144.871l.221,3.783h-392c7.255-93.182,25.385-143.4,54.39-148.654c1.708-.309,3.436-.636,5.18-.979l2.626-.527l2.646-.548l2.128-.453l2.672-.585l2.682-.602l2.15-.493l2.153-.503l2.153-.512l1.389-.335c6.021,55.754,42.426,83.63,109.216,83.63c67.296,0,103.744-28.98,109.345-86.94Z" clip-rule="evenodd" fill="#2f346e" fill-rule="evenodd" stroke-linejoin="round" stroke-miterlimit="2"/><path d="M298.73,471.877l2.718.708l3.19.817l2.137.54l3.218.798l1.075.262l2.152.52l3.229.765l3.227.743l2.146.483l2.141.472l1.067.232l2.128.453l2.646.548l2.626.527c1.744.343,3.472.67,5.18.979c28.715,5.202,46.771,53.492,54.169,144.871l.221,3.783h-392c7.255-93.182,25.385-143.4,54.39-148.654c1.708-.309,3.436-.636,5.18-.979l2.626-.527l2.646-.548l2.128-.453l2.672-.585l2.682-.602l2.15-.493l2.153-.503l2.153-.512l1.389-.335c6.021,55.754,42.426,83.63,109.216,83.63c67.296,0,103.744-28.98,109.345-86.94Z" clip-rule="evenodd" fill="#9e3311" fill-rule="evenodd" stroke-linejoin="round" stroke-miterlimit="2"/><path d="M298.73,471.877l2.718.708l3.19.817l2.137.54l3.218.798l1.075.262l2.152.52l3.229.765l3.227.743l2.146.483l2.141.472l1.067.232l2.128.453l2.646.548l2.626.527c1.744.343,3.472.67,5.18.979c28.715,5.202,46.771,53.492,54.169,144.871l.221,3.783h-392c7.255-93.182,25.385-143.4,54.39-148.654c1.708-.309,3.436-.636,5.18-.979l2.626-.527l2.646-.548l2.128-.453l2.672-.585l2.682-.602l2.15-.493l2.153-.503l2.153-.512l1.389-.335c6.021,55.754,42.426,83.63,109.216,83.63c67.296,0,103.744-28.98,109.345-86.94Z" clip-rule="evenodd" fill="#c4aa06" fill-rule="evenodd" stroke-linejoin="round" stroke-miterlimit="2"/></g></g><clipPath id="eb4PDIFmNWU40"><rect width="393" height="629" rx="0" ry="0" clip-rule="evenodd" fill-rule="evenodd" stroke-linejoin="round" stroke-miterlimit="2"/></clipPath></g></g></g><g transform="matrix(1.23617 0 0 1.23617 217.318235 1171.13773)" clip-rule="evenodd"><g transform="translate(-145-201)" clip-rule="evenodd"><g clip-rule="evenodd"><path d="M0,401c5.367-59.658,18.78-91.168,40.238-94.532c25.271-3.962,56.467-12.497,66.124-15.023c4.641-1.214,7.304-2.371,9.176-3.811c4.155-3.199,3.917-6.061,3.981-6.483.346-2.291.541-5.19.584-8.695-41.149-8.577-72.574-38.088-85.57-76.843-1.888.898-3.919,1.387-6.033,1.387C18.283,197,10,185.583,10,171.5s8.283-25.5,18.5-25.5h-.176C32.816,83.93,83.396,35,145.129,35c61.75,0,113.015,48.955,117.546,111.049c9.667.834,17.325,11.91,17.325,25.451c0,14.083-8.283,25.5-18.5,25.5-1.821,0-3.58-.363-5.243-1.038-13.256,38.662-45.063,68.061-86.316,76.546.015,3.594.196,6.532.54,8.813.064.421-.174,3.28,3.981,6.473c1.872,1.439,4.535,2.595,9.176,3.807c9.657,2.522,40.853,11.045,66.124,15.001C271.22,309.961,284.633,341.427,290,401h-290Z" clip-rule="evenodd" fill="#fddbd0" fill-rule="evenodd" stroke-linejoin="round" stroke-miterlimit="2"/><path d="M192.217,5.762c10.967,3.477,16.369,5.684,19.678,7.747c3.309,2.062,2.71,4.5,1.209,6.251c29.81,10.448,48.569,28.737,56.277,54.868c5.878,19.927,10.595,47.332,7.889,83.706-3.268-7.22-9.141-12.334-15.77-12.334-.135,0-.27.002-.405.006-1.372-17.93-6.399-33.084-13.435-46.383c1.615,7.304,2.732,13.038,3.352,17.202c2.937,19.731-1.431,28.271,1.737,41.184c2.578,10.509,7.693,16.223,12.568,21.488l.608.656c2.728,2.945,5.344,5.805,7.352,9.353.756,1.336,2.775,6.377,2.636,11.418-.093,3.36-.596,5.899-1.508,7.615c1.428-4.819.792-10.121-1.906-15.904l.177.387c-.105.579-.212,1.16-.32,1.743-5.302,28.696-8.072,47.52-8.31,56.473-.357,13.43.966,27.802.966,32.684s-1.494,16.131-9.598,22.758c-1.044.853-2.42,1.293-4.126,1.319-2.064.031-4.612-.544-7.645-1.724l-1.566-.281-.787-.143-1.577-.294-1.584-.301-.793-.153-1.59-.311-1.591-.318-1.593-.324-1.593-.329-1.591-.334-1.588-.338-1.583-.343-1.578-.345-2.354-.524-1.559-.351-2.318-.531-2.291-.532-2.259-.532-2.956-.707-2.167-.526-2.817-.692-2.724-.678-3.257-.823-1.868-.476-3.52-.907-3.704-.966-7.552-1.986c-1.183-.316-2.233-.628-3.172-.943l-.347-.118-.599-.214c-2.039-.751-3.496-1.53-4.652-2.416-1.926-1.477-2.908-2.882-3.414-4.006l-.061-.14-.097-.24-.083-.231-.07-.22-.03-.106-.028-.103-.047-.197-.039-.185-.03-.172-.023-.159-.024-.213-.032-.463-.086-.61-.077-.613c-.024-.209-.047-.422-.069-.64l-.032-.331-.059-.682-.052-.709-.045-.737-.021-.379-.035-.778-.014-.399-.025-.82-.018-.846-.006-.434v-2.126c39.668-8.979,71.755-38.156,84.964-76.64c2.208.895,4.28,1.524,6.582,1.451c4.047-.13,7.697-1.604,10.73-4.602-2.311-3.541-16.669-17.153-22.724-33.461-1.122-3.02-1.305-6.754-1.312-11.622l.001-.845c.019-8.997.468-21.744-3.099-40.69-.826-4.388-2.725-10.871-5.699-19.448-16.284-23.185-39.357-38.048-62.575-41.342-1.972,1.333-9.309,2.125-18.388,3.757-6.62,2.444-12.233,5.178-16.838,8.201-2.115,1.389-4.241,2.78-6.366,4.167l-2.729,1.782c-14.846,9.689-29.338,19.127-39.035,26.63-11.676,9.035-21.177,23.358-30.008,36.578-5.652,8.461-11.152,23.655-16.5,45.584c3.843-18.024,7.392-32.094,10.648-42.209c2.47-7.676,13.227-30.65,46.822-56.805C94.432,77.968,85.513,82.921,72.5,95.88c-25.155,25.051-35.381,88.89-35.381,102.356c6.265,20.3,28.264,59.682,82.95,73.764l.088,1.446-.016.934-.01.456-.028.889-.034.86-.042.829-.049.8-.028.389-.06.755c-.074.845-.162,1.633-.265,2.362l-.055.384-.033.463-.034.29-.027.166-.034.179-.042.191-.026.1-.058.209-.07.22-.039.114-.09.236-.104.246c-.504,1.126-1.487,2.537-3.421,4.021-1.816,1.393-4.378,2.52-8.77,3.691l-9.613,2.525-3.957,1.024-3.074.786-3.257.823-2.034.507-2.795.689-2.152.524-2.197.529-2.235.531-2.27.533-2.301.531-1.548.354-1.559.351-2.354.524-1.578.345-1.584.343-1.588.338-1.591.334-1.592.329-1.991.404-1.989.394-1.587.308-1.979.375-1.969.363-1.957.35-.39.068-1.553.268c-1.289.218-2.568.427-3.831.625-7.822,1.221-15.601-19.707-16.133-24.194-.225-1.901-.341-6.882-.348-14.943v-1.372c.003-4.358.035-9.544.097-15.558l.068-2.766.057-2.71.032-1.777.027-1.751.023-1.727.018-1.702.013-1.678.009-1.653.004-2.433-.003-1.591-.008-1.567-.021-2.304-.02-1.504-.024-1.481-.029-1.455-.034-1.431-.036-1.295-.043-1.162c-.039-.96-.089-1.897-.149-2.814l-.076-1.09c-.014-.18-.027-.359-.042-.537l-.089-1.061c-.047-.526-.098-1.044-.151-1.556l-.112-1.015c-.057-.502-.118-.999-.182-1.488l-.131-.971-.139-.955c-.024-.157-.048-.314-.073-.471l-.15-.93-.157-.915-.165-.899c-.028-.149-.056-.297-.084-.445l-.175-.877-.181-.864c-.061-.286-.123-.57-.186-.851l-.193-.837-.199-.825-.204-.813-.209-.801-.215-.789-.219-.779-.224-.769c-.038-.127-.076-.254-.114-.38l-.231-.754-.234-.744-.239-.736c-.04-.122-.08-.244-.12-.365l-.368-1.082-.374-1.066-.254-.701-.256-.696-.388-1.032-.394-1.02-.531-1.345-.536-1.331-.947-2.303-1.398-3.377-.66-1.616-.489-1.221-.322-.819-.478-1.24-.469-1.254-.307-.846-.302-.855-.297-.865-.292-.875c-.048-.146-.096-.293-.143-.441l-.282-.892c-1.627-5.241-2.913-11.121-3.498-18.385-2.152-26.766,7.049-78.112,14.429-91.967C60.473,-16.89,181.25,2.286,192.217,5.762Z" clip-rule="evenodd" fill="#f6da9c" fill-rule="evenodd" stroke-linejoin="round" stroke-miterlimit="2"/><path d="M72.5,20.544C54.15,32.388,37.703,50.148,31.846,58.711C22.698,72.085,22.369,86.69,19.419,99.087c-5.784,24.303-7.141,40.196-4.071,47.678.813-9.881,3.16-17.518,4.071-23.609c4.592-30.728,11.626-54.712,17.514-64.397C49.31,38.402,68.526,26.963,80.452,20.374c18.997-10.498,25.75-9.348,6.898-7.12-2.746.324-7.696,2.754-14.85,7.29Z" clip-rule="evenodd" fill-opacity="0.05" fill-rule="evenodd" stroke-linejoin="round" stroke-miterlimit="2"/><path d="M174.661,20.124c-17.958,4.718-24.812,4.047-36.581,11.66-17.653,11.419-40.304,21.054-71.903,48.055C45.111,97.84,30.773,149.227,29.354,194.468C49.605,112.347,63.32,90.582,80.819,76.666c26.249-20.875,46.468-32.886,66.998-41.134c18.863-7.579,24.32-7.704,37.277-11.919c20.291-6.601,25.628-8.99,6.776-6.762-2.746.325-8.605,1.013-17.209,3.273Z" clip-rule="evenodd" fill-opacity="0.05" fill-rule="evenodd" stroke-linejoin="round" stroke-miterlimit="2"/><ellipse rx="8.508" ry="7.35" transform="translate(95.858 154.115)" clip-rule="evenodd" fill-rule="evenodd" stroke-linejoin="round" stroke-miterlimit="2"/><ellipse rx="8.508" ry="7.35" transform="translate(194.251 154.115)" clip-rule="evenodd" fill-rule="evenodd" stroke-linejoin="round" stroke-miterlimit="2"/><path d="M109.981,223.29c8.231,11.778,20.476,17.667,36.735,17.667c16.26,0,27.192-5.889,32.796-17.667h-69.531Z" clip-rule="evenodd" fill="#e0a690" fill-rule="evenodd" stroke-linejoin="round" stroke-miterlimit="2"/><g transform="matrix(1 0 0 1.00378 0-1.11453)" clip-rule="evenodd"><path d="M193.49,294.979c0,0,51.061,11.037,56.422,11.782c21.297,2.96,34.452,34.432,39.925,92.838l.163,1.779h-290c5.367-59.559,18.712-91.519,40.169-94.877c1.264-.198,54.762-11.131,54.762-11.131c4.454,35.636,33.414,43.179,48.071,43.406c15.211.235,46.345-6.751,50.488-43.797Z" clip-rule="evenodd" fill="#a662ad" fill-rule="evenodd" stroke-linejoin="round" stroke-miterlimit="2"/></g><g transform="translate(45.9481 47.0257)" clip-rule="evenodd"><path d="M1.052,20.584c-1.403-.504-1.403-2.501,0-5.99c1.056-2.629,2.433-9.582,4.996-13.69.559-.897,1.623-1.126,3.191-.689c2.452.534,5.91,2.694,10.373,6.481c3.163,2.682,4.985,7.458,10.125,12.594c1.41,1.409,4.469,3.441,9.176,6.096c2.801.991,4.717.991,5.747,0c2.981-2.867,4.705-10.161,6.195-12.693c2.261-3.843,1.946-5.842-.945-5.997-7.056.365-12.281,1.093-15.676,2.184-5.97,1.917-12.638,7-16.757,8.171C9.844,19.22,4.369,20.398,1.052,20.584Z" clip-rule="evenodd" fill="#a662ad" fill-rule="evenodd" stroke-linejoin="round" stroke-miterlimit="2"/><path d="M6.607,7.396L8.099,4.225c1.933.398,3.683,1.084,5.247,2.057c1.565.973,3.812,2.773,6.74,5.398-3.81-1.919-6.606-3.162-8.387-3.728s-3.478-.751-5.092-.556Z" clip-rule="evenodd" fill-opacity="0.2" fill-rule="evenodd" stroke-linejoin="round" stroke-miterlimit="2"/><path d="M2.607,17.396l1.492-3.171c1.666.477,3.624.716,5.873.716c2.25,0,5.437-.239,9.562-.716-4.472,1.467-7.831,2.386-10.078,2.757s-4.53.509-6.849.414Z" clip-rule="evenodd" fill-opacity="0.2" fill-rule="evenodd" stroke-linejoin="round" stroke-miterlimit="2"/><path d="M47.873,11.941L48.94,9.218c-3.386.358-6.553.842-9.502,1.449-2.95.608-6.545,1.407-10.786,2.398c5.621-.575,9.518-.95,11.691-1.124c2.174-.174,4.684-.174,7.53,0Z" clip-rule="evenodd" fill-opacity="0.2" fill-rule="evenodd" stroke-linejoin="round" stroke-miterlimit="2"/><path d="M42.547,23.873l2.44-4.021c-2.443-.24-4.978-.682-7.603-1.326-2.626-.643-5.87-2.13-9.732-4.461c4.701,3.516,7.733,5.792,9.097,6.826c1.365,1.034,3.297,2.028,5.798,2.982Z" clip-rule="evenodd" fill-opacity="0.2" fill-rule="evenodd" stroke-linejoin="round" stroke-miterlimit="2"/></g></g></g></g><g transform="matrix(1.23617 0 0 1.23617 582.034071 1032.742655)" clip-rule="evenodd"><g transform="translate(-208.5-314)" clip-rule="evenodd"><g clip-path="url(#eb4PDIFmNWU77)" clip-rule="evenodd"><g><g transform="translate(7.46799 0)" clip-rule="evenodd"><path d="M0,628.206c7.441-101.63,26.037-155.311,55.787-161.041c35.037-6.749,78.288-21.289,91.677-25.592c6.434-2.068,10.126-4.039,12.721-6.493c5.761-5.448,5.431-10.325,5.519-11.044.465-3.78.525-9.084.18-15.91-27.015-8.006-49.378-25.684-70.215-51.007-18.413-22.376-35.349-50.671-45.924-82.264-3.249,2.54-6.866,3.955-10.677,3.955-14.156,0-25.631-19.532-25.631-43.626c0-24.095,11.475-43.627,25.631-43.627h.001C45.875,86.523,115.545,3.962,200.486,3.962c84.953,0,154.629,82.582,161.421,187.635.36-.027.724-.04,1.089-.04c14.155,0,25.63,19.532,25.63,43.627c0,24.094-11.475,43.626-25.63,43.626-4.096,0-7.968-1.635-11.402-4.543-10.778,32.048-28.58,59.95-48.767,82.852-19.921,22.601-41.474,40.746-66.718,49.722-.278,7.844-.194,13.576.251,17.195.088.719-.242,5.596,5.519,11.044c2.595,2.454,6.287,4.425,12.721,6.493c13.389,4.303,56.64,18.843,91.677,25.592c29.75,5.73,48.346,59.411,55.787,161.041h-402.064Z" clip-rule="evenodd" fill="#f2d8ce" fill-rule="evenodd" stroke-linejoin="round" stroke-miterlimit="2"/><g transform="translate(0 422.876)" clip-rule="evenodd"><path d="M249.388,1.9c-.39,4.077-2.294,10.579-5.699,11.996-3.708.755-7.738-8.97-7.544-14.736c0,0,8.112-.636,13.243,2.74Zm-83.39-4.21l-.2,2.674-.143,1.629-.048.497-.036.283-.048.306-.059.327-.035.171-.081.357-.097.376-.055.195-.124.403-.145.42c-.698,1.927-2.06,4.339-4.742,6.876-1.257,1.188,0,0-1.238,1.182-3.251-1.364-6.102-9.615-8.555-13.406c5.241-2.776,10.761-2.207,15.606-2.29Z" clip-rule="evenodd" fill-rule="evenodd" stroke-linejoin="round" stroke-miterlimit="2"/><path d="M249.382,1.854c3.108,5.52,9.385,15.404,11.39,18.456c11.282,3.18,23.306,7.138,48.415,15.102l3.272.891l2.192.588l3.301.87l1.102.287l2.207.567l3.313.834l3.309.811l2.202.527l2.195.514l1.095.253l2.183.494l2.713.598l2.694.574c1.788.374,3.561.731,5.312,1.069c29.453,5.673,47.973,58.342,55.56,158.006l.227,3.035L0,205.33C7.441,103.699,26.037,50.019,55.787,44.289c1.751-.338,3.524-.695,5.312-1.069l2.694-.574l17.01-4.031c32.255-8.992,48.148-13.89,60.334-18.177c1.491-3.269,6.815-15.158,9.255-20.6c0,0,14.768,20.294,34.608,23.936c14.887,24.416,14.887,67.595,14.887,67.595s.113-40.33,15.113-67.595c27.805-5.077,34.382-21.92,34.382-21.92Z" clip-rule="evenodd" fill="#202c42" fill-rule="evenodd" stroke-linejoin="round" stroke-miterlimit="2"/><path d="M141.35,20.646c9.792,13.855,31.601,21.724,53.201,27.504.656,8.103-1.701,119.575-1.701,157.18c8.182,0,8.182,0,14.614-.206c0-61.19,1.036-85.421,0-108.106-1.762-16.617-16.641-61.025-17.856-64.193-.81-2.111-2.346-5.129-4.608-9.051-2.25,1.769-8.472,9.155-12.361,16.249-8.491-3.41-22.758-9.42-31.289-19.377Z" clip-rule="evenodd" fill-rule="evenodd" stroke-linejoin="round" stroke-miterlimit="2"/><g transform="matrix(-1 0 0 1 460.302 0)" clip-rule="evenodd"><path d="M199.552,20.321c9.173,12.597,31.623,20.835,55.048,27.963-2.192-8.139-3.831-12.245-5.081-15.429-.834-2.123-2.008-5.163-4.195-9.094-4.213,3.247-8.282,9.263-11.536,16.021-7.64-1.412-23.153-7.483-34.236-19.461Z" clip-rule="evenodd" fill-rule="evenodd" stroke-linejoin="round" stroke-miterlimit="2"/></g></g><path d="M50.348,275.15c42.27,47.011,65.092,70.68,68.464,71.008c5.059.492,9.347-30.074,28.061-35.504c18.715-5.43,87.628-7.062,102.509,0c14.88,7.062,16.976,35.996,21.941,35.504c3.294-.327,29.878-23.78,79.75-70.361-10.825,31.405-28.38,58.785-48.246,81.322-28.682,32.54-60.745,55.843-102.341,55.843-43.604,0-75.7-20.458-104.817-55.843-17.58-21.364-33.814-48.124-44.451-77.999l-.87-3.97Z" clip-rule="evenodd" fill="#c8c6aa" fill-opacity="0.3" fill-rule="evenodd" stroke-linejoin="round" stroke-miterlimit="2"/><path d="M353.361,196.433c-7.083-55.02-23.929-93.337-36.025-109.279-42.081-55.462-97.056-39.378-119.813-39.378-26.474,0-82.483-18.243-120.998,48.516-8.108,14.053-23.676,46.852-28.589,98.086l-8.868-2.821c-1.009-11.456-1.009-20.453,0-26.992C43.9,133.245,53.926,106.72,60.61,95.882c17.098-27.723,35.871-51.009,53.802-65.349C147.65,3.951,178.957,0.206,198.128,0.206c25.606,0,85.264,10.391,127.023,69.948c8.939,12.749,22.484,35.402,30.971,69.327c1.473,5.887,3.84,14.466,5.126,25.084.604,4.984,1.005,13.981,1.202,26.992l-9.089,4.876Z" clip-rule="evenodd" fill="#c8c6aa" fill-rule="evenodd" stroke-linejoin="round" stroke-miterlimit="2"/><circle r="12.543" transform="translate(123.871 204.1)" clip-rule="evenodd" fill-rule="evenodd" stroke-linejoin="round" stroke-miterlimit="2"/><circle r="12.543" transform="translate(268.929 204.1)" clip-rule="evenodd" fill-rule="evenodd" stroke-linejoin="round" stroke-miterlimit="2"/><path d="M146.873,322.138c12.135,20.098,30.188,30.148,54.159,30.148s40.087-10.05,48.35-30.148h-102.509Z" clip-rule="evenodd" fill="#e0a690" fill-rule="evenodd" stroke-linejoin="round" stroke-miterlimit="2"/></g></g><clipPath id="eb4PDIFmNWU77"><rect width="417" height="628" rx="0" ry="0" clip-rule="evenodd" fill-rule="evenodd" stroke-linejoin="round" stroke-miterlimit="2"/></clipPath></g></g></g></g></g></g></g></g></svg>
