<?xml version="1.0" encoding="UTF-8" standalone="no"?>
<!DOCTYPE svg PUBLIC "-//W3C//DTD SVG 1.1//EN" "http://www.w3.org/Graphics/SVG/1.1/DTD/svg11.dtd">
<svg width="100%" height="100%" viewBox="0 0 417 628" version="1.1" xmlns="http://www.w3.org/2000/svg" xmlns:xlink="http://www.w3.org/1999/xlink" xml:space="preserve" xmlns:serif="http://www.serif.com/" style="fill-rule:evenodd;clip-rule:evenodd;stroke-linejoin:round;stroke-miterlimit:2;">
    <g id="Ruben" transform="matrix(1,0,0,1,7.46799,0)">
        <path id="ruben-lichaam" d="M0,628.206C7.441,526.576 26.037,472.895 55.787,467.165C90.824,460.416 134.075,445.876 147.464,441.573C153.898,439.505 157.59,437.534 160.185,435.08C165.946,429.632 165.616,424.755 165.704,424.036C166.169,420.256 166.229,414.952 165.884,408.126C138.869,400.12 116.506,382.442 95.669,357.119C77.256,334.743 60.32,306.448 49.745,274.855C46.496,277.395 42.879,278.81 39.068,278.81C24.912,278.81 13.437,259.278 13.437,235.184C13.437,211.089 24.912,191.557 39.068,191.557L39.069,191.557C45.875,86.523 115.545,3.962 200.486,3.962C285.439,3.962 355.115,86.544 361.907,191.597C362.267,191.57 362.631,191.557 362.996,191.557C377.151,191.557 388.626,211.089 388.626,235.184C388.626,259.278 377.151,278.81 362.996,278.81C358.9,278.81 355.028,277.175 351.594,274.267C340.816,306.315 323.014,334.217 302.827,357.119C282.906,379.72 261.353,397.865 236.109,406.841C235.831,414.685 235.915,420.417 236.36,424.036C236.448,424.755 236.118,429.632 241.879,435.08C244.474,437.534 248.166,439.505 254.6,441.573C267.989,445.876 311.24,460.416 346.277,467.165C376.027,472.895 394.623,526.576 402.064,628.206L0,628.206Z" style="fill:rgb(253,219,208);"/>
        <g id="ruben-kleren" transform="matrix(1,0,0,1,0,422.876)">
            <path id="Shape" d="M249.388,1.9C248.998,5.977 247.094,12.479 243.689,13.896C239.981,14.651 235.951,4.926 236.145,-0.84C236.145,-0.84 244.257,-1.476 249.388,1.9ZM165.998,-2.31L165.798,0.364L165.655,1.993L165.607,2.49L165.571,2.773L165.523,3.079L165.464,3.406L165.429,3.577L165.348,3.934L165.251,4.31L165.196,4.505L165.072,4.908L164.927,5.328C164.229,7.255 162.867,9.667 160.185,12.204C158.928,13.392 160.185,12.204 158.947,13.386C155.696,12.022 152.845,3.771 150.392,-0.02C155.633,-2.796 161.153,-2.227 165.998,-2.31Z"/>
            <path d="M249.382,1.854C252.49,7.374 258.767,17.258 260.772,20.31C272.054,23.49 284.078,27.448 309.187,35.412L312.459,36.303L314.651,36.891L317.952,37.761L319.054,38.048L321.261,38.615L324.574,39.449L327.883,40.26L330.085,40.787L332.28,41.301L333.375,41.554L335.558,42.048L338.271,42.646L340.965,43.22C342.753,43.594 344.526,43.951 346.277,44.289C375.73,49.962 394.25,102.631 401.837,202.295L402.064,205.33L0,205.33C7.441,103.699 26.037,50.019 55.787,44.289C57.538,43.951 59.311,43.594 61.099,43.22L63.793,42.646L80.803,38.615C113.058,29.623 128.951,24.725 141.137,20.438C142.628,17.169 147.952,5.28 150.392,-0.162C150.392,-0.162 165.16,20.132 185,23.774C199.887,48.19 199.887,91.369 199.887,91.369C199.887,91.369 200,51.039 215,23.774C242.805,18.697 249.382,1.854 249.382,1.854Z" style="fill:rgb(32,44,66);"/>
            <path id="fold-links" d="M141.35,20.646C151.142,34.501 172.951,42.37 194.551,48.15C195.207,56.253 192.85,167.725 192.85,205.33C201.032,205.33 201.032,205.33 207.464,205.124C207.464,143.934 208.5,119.703 207.464,97.018C205.702,80.401 190.823,35.993 189.608,32.825C188.798,30.714 187.262,27.696 185,23.774C182.75,25.543 176.528,32.929 172.639,40.023C164.148,36.613 149.881,30.603 141.35,20.646Z"/>
            <g id="fold-rechts" transform="matrix(-1,0,0,1,460.302,0)">
                <path d="M199.552,20.321C208.725,32.918 231.175,41.156 254.6,48.284C252.408,40.145 250.769,36.039 249.519,32.855C248.685,30.732 247.511,27.692 245.324,23.761C241.111,27.008 237.042,33.024 233.788,39.782C226.148,38.37 210.635,32.299 199.552,20.321Z"/>
            </g>
        </g>
        <path id="baard" d="M50.348,275.15C92.618,322.161 115.44,345.83 118.812,346.158C123.871,346.65 128.159,316.084 146.873,310.654C165.588,305.224 234.501,303.592 249.382,310.654C264.262,317.716 266.358,346.65 271.323,346.158C274.617,345.831 301.201,322.378 351.073,275.797C340.248,307.202 322.693,334.582 302.827,357.119C274.145,389.659 242.082,412.962 200.486,412.962C156.882,412.962 124.786,392.504 95.669,357.119C78.089,335.755 61.855,308.995 51.218,279.12L50.348,275.15Z" style="fill:rgb(200,198,170);fill-opacity:0.3;"/>
        <path id="ruben-haar" d="M353.361,196.433C346.278,141.413 329.432,103.096 317.336,87.154C275.255,31.692 220.28,47.776 197.523,47.776C171.049,47.776 115.04,29.533 76.525,96.292C68.417,110.345 52.849,143.144 47.936,194.378L39.068,191.557C38.059,180.101 38.059,171.104 39.068,164.565C43.9,133.245 53.926,106.72 60.61,95.882C77.708,68.159 96.481,44.873 114.412,30.533C147.65,3.951 178.957,0.206 198.128,0.206C223.734,0.206 283.392,10.597 325.151,70.154C334.09,82.903 347.635,105.556 356.122,139.481C357.595,145.368 359.962,153.947 361.248,164.565C361.852,169.549 362.253,178.546 362.45,191.557L353.361,196.433Z" style="fill:rgb(200,198,170);"/>
        <circle id="ruben-oog-links" cx="123.871" cy="204.1" r="12.543"/>
        <circle id="ruben-oog-rechts" cx="268.929" cy="204.1" r="12.543"/>
        <path id="ruben-mond" d="M146.873,322.138C159.008,342.236 177.061,352.286 201.032,352.286C225.003,352.286 241.119,342.236 249.382,322.138L146.873,322.138Z" style="fill:rgb(224,166,144);"/>
    </g>
</svg>
